<svg width="105" height="56" viewBox="0 0 105 56" fill="none" xmlns="http://www.w3.org/2000/svg">
<rect x="0.5" y="0.5" width="104" height="55" rx="7.5" fill="white" stroke="#E8ECF4"/>
<g clip-path="url(#clip0_1_304)">
<path d="M44.6684 40.5133C44.1558 40.1723 43.7015 39.7509 43.3229 39.2653C42.9065 38.7641 42.5207 38.2383 42.1675 37.6907C41.3389 36.4767 40.689 35.1498 40.2378 33.7509C39.6959 32.1259 39.4335 30.5683 39.4335 29.0449C39.4335 27.3435 39.8015 25.8582 40.5214 24.6102C41.055 23.6348 41.8396 22.8196 42.794 22.2491C43.7188 21.6747 44.7815 21.3603 45.8701 21.3391C46.2512 21.3391 46.6615 21.3944 47.097 21.5C47.4098 21.5886 47.7908 21.7283 48.2564 21.9022C48.8487 22.1305 49.1745 22.2702 49.285 22.3044C49.632 22.4311 49.9237 22.4864 50.1528 22.4864C50.3267 22.4864 50.572 22.4311 50.8507 22.3466C51.0075 22.2914 51.3033 22.1939 51.7266 22.0127C52.1458 21.8599 52.4757 21.7291 52.7382 21.6316C53.1403 21.513 53.5295 21.4033 53.8765 21.3481C54.2878 21.2832 54.7052 21.266 55.1204 21.2969C55.84 21.3439 56.5487 21.4964 57.224 21.7494C58.3282 22.1939 59.2211 22.8877 59.8857 23.8741C59.6048 24.0473 59.3412 24.247 59.0984 24.4705C58.57 24.939 58.1198 25.4889 57.7651 26.0996C57.3014 26.934 57.061 27.8741 57.0672 28.8287C57.0842 30.0012 57.3848 31.0339 57.9772 31.9268C58.4126 32.5886 58.9786 33.1545 59.6403 33.59C59.9792 33.8183 60.2708 33.9751 60.5503 34.0807C60.4195 34.487 60.2798 34.8802 60.1148 35.2702C59.7408 36.1448 59.2874 36.9833 58.7604 37.7752C58.2908 38.4569 57.9227 38.9647 57.6432 39.3027C57.2077 39.8186 56.7885 40.2127 56.3652 40.4873C55.8996 40.7961 55.3495 40.961 54.7905 40.961C54.412 40.9755 54.0335 40.9297 53.6693 40.8253C53.3565 40.7197 53.0469 40.6051 52.7422 40.4743C52.4255 40.3288 52.0988 40.2058 51.7648 40.1062C50.939 39.8941 50.0733 39.8928 49.2468 40.1022C48.908 40.1997 48.5822 40.3134 48.2605 40.4532C47.8079 40.6433 47.5073 40.7709 47.3334 40.8253C46.9865 40.9269 46.6265 40.9902 46.2625 41.0114C45.6995 41.0114 45.1746 40.8505 44.6546 40.5247L44.6684 40.5133ZM52.0947 20.5136C51.3585 20.8817 50.6557 21.0385 49.9578 20.9873C49.8481 20.2845 49.9578 19.5654 50.2495 18.7781C50.4978 18.1111 50.8647 17.4945 51.3325 16.9581C51.8265 16.3934 52.426 15.9306 53.0973 15.5956C53.8123 15.2275 54.494 15.0284 55.1456 14.9992C55.2301 15.7353 55.1456 16.4592 54.875 17.2417C54.6246 17.9333 54.2584 18.5774 53.792 19.1462C53.3159 19.7116 52.7316 20.1763 52.0735 20.5128L52.0947 20.5136Z" fill="black"/>
</g>
<defs>
<clipPath id="clip0_1_304">
<rect width="26" height="26" fill="white" transform="translate(37 15)"/>
</clipPath>
</defs>
</svg>
