<svg width="105" height="56" viewBox="0 0 105 56" fill="none" xmlns="http://www.w3.org/2000/svg">
<rect x="0.5" y="0.5" width="104" height="55" rx="7.5" fill="white" stroke="#E8ECF4"/>
<path d="M43.4201 30.4656L42.5973 33.537L39.5902 33.6007C38.6915 31.9338 38.1818 30.0267 38.1818 28C38.1818 26.0403 38.6584 24.1922 39.5032 22.565H39.5038L42.181 23.0558L43.3538 25.7169C43.1083 26.4325 42.9745 27.2007 42.9745 28C42.9746 28.8676 43.1318 29.6988 43.4201 30.4656Z" fill="#FBBB00"/>
<path d="M61.6116 25.7922C61.7474 26.5071 61.8181 27.2454 61.8181 28C61.8181 28.8461 61.7292 29.6714 61.5597 30.4675C60.9844 33.1766 59.4811 35.5422 57.3987 37.2162L57.398 37.2156L54.026 37.0435L53.5487 34.0643C54.9305 33.2539 56.0104 31.9857 56.5793 30.4675H50.2598V25.7922H56.6715H61.6116Z" fill="#518EF8"/>
<path d="M57.398 37.2156L57.3986 37.2163C55.3733 38.8442 52.8006 39.8182 49.9999 39.8182C45.4993 39.8182 41.5863 37.3026 39.5902 33.6007L43.4201 30.4656C44.4181 33.1293 46.9876 35.0254 49.9999 35.0254C51.2947 35.0254 52.5078 34.6754 53.5486 34.0643L57.398 37.2156Z" fill="#28B446"/>
<path d="M57.5434 18.9026L53.7149 22.037C52.6376 21.3636 51.3642 20.9747 49.9999 20.9747C46.9194 20.9747 44.3019 22.9578 43.3538 25.7169L39.5038 22.5649H39.5032C41.4701 18.7727 45.4324 16.1818 49.9999 16.1818C52.8675 16.1818 55.4967 17.2033 57.5434 18.9026Z" fill="#F14336"/>
</svg>
